<!DOCTYPE svg PUBLIC "-//W3C//DTD SVG 20010904//EN" "http://www.w3.org/TR/2001/REC-SVG-20010904/DTD/svg10.dtd">
<svg version="1.0" xmlns="http://www.w3.org/2000/svg" width="1200px" height="1200px" viewBox="0 0 12000 12000" preserveAspectRatio="xMidYMid meet">
<g id="layer101" fill="#000000" stroke="none">
</g>
<g id="layer102" fill="#044ac3" stroke="none">
<path d="M5815 11034 c-301 -23 -517 -61 -712 -125 l-63 -21 0 -158 0 -158 -78 -40 c-231 -118 -573 -347 -704 -471 l-58 -54 0 15 c0 22 56 177 84 233 14 28 26 53 26 58 l0 7 -17 0 -16 0 -105 -56 c-58 -30 -146 -83 -196 -117 l-91 -62 -91 -90 c-50 -49 -105 -110 -122 -133 l-31 -44 -5 24 c-4 19 -8 82 -20 308 l-1 25 -21 3 -22 3 -6 -33 c-7 -40 -69 -173 -85 -183 l-11 -6 5 -10 6 -9 -94 -93 -94 -94 -85 -56 -84 -57 -95 -44 -94 -45 -130 -41 c-178 -57 -227 -76 -320 -126 l-80 -42 -80 -60 -81 -60 -96 -101 -96 -100 -61 -92 c-144 -219 -243 -485 -285 -769 -19 -126 -36 -320 -36 -412 l0 -67 -19 -11 -20 -10 -118 -10 c-65 -5 -149 -10 -188 -10 l-70 0 185 -187 c102 -104 201 -205 219 -225 l34 -37 12 -143 12 -143 -7 -14 -8 -14 -16 30 c-27 53 -136 185 -225 272 -119 115 -249 218 -430 339 l-154 103 -20 -3 -20 -3 -4 -65 c-2 -36 -4 -131 -4 -212 l0 -147 -24 -43 c-29 -51 -91 -122 -127 -146 -15 -9 -66 -44 -115 -76 l-88 -59 -80 -37 c-44 -21 -91 -42 -105 -48 l-25 -10 50 -22 c28 -12 106 -46 175 -75 69 -29 175 -74 235 -100 61 -25 156 -65 212 -88 l103 -42 0 -13 0 -13 -42 -18 c-24 -10 -76 -26 -115 -36 -40 -9 -73 -20 -72 -24 0 -3 32 -29 72 -57 40 -29 138 -109 220 -178 l147 -127 0 -24 0 -24 -10 -6 -10 -6 0 -44 0 -43 31 -69 31 -68 19 -74 19 -74 0 -49 0 -49 -11 -22 c-6 -12 -19 -31 -29 -42 l-17 -20 -12 -95 c-7 -52 -28 -179 -47 -281 l-34 -187 0 -41 0 -40 47 -8 48 -8 195 0 195 0 80 23 79 23 58 31 58 31 56 56 c31 31 62 68 70 84 l15 27 39 -6 39 -6 33 20 33 21 28 36 c15 19 32 35 38 35 6 0 35 -21 65 -47 l54 -47 0 -11 c0 -6 -22 -34 -49 -63 l-49 -52 -75 -113 c-152 -228 -253 -432 -374 -752 -49 -132 -134 -408 -152 -497 l-12 -56 -32 -15 c-18 -8 -97 -41 -177 -72 -124 -50 -255 -108 -269 -121 -2 -2 38 -48 90 -101 52 -54 132 -142 177 -196 l82 -98 0 -22 c0 -12 -7 -72 -15 -134 -8 -62 -24 -217 -36 -345 l-20 -233 -6 -385 -6 -385 12 -235 c12 -236 35 -568 46 -647 l6 -43 20 0 19 0 298 282 299 283 54 19 c193 66 577 251 834 400 373 218 780 516 1078 789 l85 78 53 -32 c310 -182 768 -343 1179 -413 l145 -25 143 -12 142 -12 238 6 237 5 115 16 c264 38 523 106 765 203 l140 56 135 68 c74 37 158 81 185 98 l50 29 20 -18 c85 -78 434 -313 675 -454 l165 -97 225 -113 c368 -184 687 -314 1053 -426 l128 -40 107 -68 c308 -196 462 -292 471 -292 l11 0 5 23 c11 49 46 332 61 487 l15 165 6 345 6 345 -12 200 c-13 227 -31 404 -62 602 l-20 136 62 63 63 63 -20 22 c-10 12 -51 46 -90 75 l-71 53 -36 143 c-20 79 -59 215 -87 302 l-52 158 -65 156 c-143 346 -312 635 -528 907 -40 50 -82 99 -94 109 l-21 19 0 18 0 18 11 6 10 7 25 -23 25 -24 107 0 107 -1 7 -62 7 -63 28 -39 c16 -21 51 -57 78 -79 l48 -40 56 -20 56 -21 80 -11 80 -11 85 7 c47 3 121 13 165 21 l80 15 22 15 22 14 12 42 11 43 -7 70 c-8 92 -40 236 -71 327 l-24 72 -26 37 -25 37 -1 51 0 51 31 55 31 55 16 68 16 67 -1 90 0 90 -10 53 c-6 29 -22 82 -37 118 l-26 65 26 38 27 38 42 30 c53 38 183 103 265 133 l62 23 -11 13 c-6 7 -43 26 -84 43 l-73 31 -68 10 c-38 5 -91 13 -118 16 l-50 6 -33 33 -33 33 0 46 0 47 16 32 c10 18 51 76 93 131 l75 99 86 74 85 74 102 68 102 68 158 80 c87 44 195 95 240 113 l83 32 -5 8 c-3 4 -17 11 -32 15 -49 12 -216 86 -320 141 l-102 54 -39 46 -39 46 -31 61 c-30 61 -112 251 -112 261 0 3 -9 30 -21 61 l-20 55 -26 0 -26 0 -39 -41 c-111 -117 -234 -312 -375 -599 -53 -107 -98 -197 -100 -199 -9 -12 -14 16 -23 120 -5 63 -15 145 -21 182 l-11 68 12 47 c6 26 25 76 42 112 65 138 77 166 84 193 l6 27 -19 0 c-10 0 -54 -16 -98 -35 -44 -19 -85 -35 -92 -35 l-11 0 -18 52 c-31 95 -102 249 -165 358 l-61 107 -77 104 c-167 224 -381 427 -621 589 -47 32 -95 68 -107 81 -25 28 -73 122 -98 194 l-18 50 -4 125 -4 125 19 70 c11 39 23 80 27 93 l7 22 -31 0 -32 0 -28 -15 -28 -14 -57 -63 -56 -63 -27 -68 -26 -68 -14 5 c-7 3 -48 30 -91 59 -191 133 -426 265 -542 302 -119 38 -274 134 -334 205 -14 17 -29 30 -35 30 l-11 0 0 -28 c0 -15 7 -54 15 -87 l16 -58 -9 -9 -9 -9 -322 130 c-177 72 -351 144 -386 160 l-65 30 -4 13 c-3 7 -8 84 -11 170 l-7 157 -47 15 c-143 46 -392 97 -601 121 l-124 15 -196 4 c-107 2 -217 2 -245 0z"/>
</g>
<g id="layer103" fill="#396baf" stroke="none">
<path d="M5815 11034 c-301 -23 -517 -61 -712 -125 l-63 -21 0 -158 0 -158 -78 -40 c-231 -118 -573 -347 -704 -471 l-58 -54 0 15 c0 22 56 177 84 233 14 28 26 53 26 58 l0 7 -17 0 -16 0 -105 -56 c-58 -30 -146 -83 -196 -117 l-91 -62 -91 -90 c-50 -49 -105 -110 -122 -133 l-31 -44 -5 24 c-4 19 -8 82 -20 308 l-1 25 -21 3 -22 3 -6 -33 c-7 -40 -69 -173 -85 -183 l-11 -6 5 -10 6 -9 -94 -93 -94 -94 -85 -56 -84 -57 -95 -44 -94 -45 -130 -41 c-178 -57 -227 -76 -320 -126 l-80 -42 -80 -60 -81 -60 -96 -101 -96 -100 -61 -92 c-144 -219 -243 -485 -285 -769 -19 -126 -36 -320 -36 -412 l0 -67 -19 -11 -20 -10 -118 -10 c-65 -5 -149 -10 -188 -10 l-70 0 185 -187 c102 -104 201 -205 219 -225 l34 -37 12 -143 12 -143 -7 -14 -8 -14 -16 30 c-27 53 -136 185 -225 272 -119 115 -249 218 -430 339 l-154 103 -21 -3 -21 -3 2 -20 c1 -11 -2 -66 -7 -122 l-8 -102 5 -59 5 -59 47 -12 c106 -28 276 -107 412 -191 111 -69 263 -186 283 -218 l7 -12 -21 0 -21 0 7 11 7 11 -34 -7 c-19 -4 -37 -12 -40 -17 l-6 -10 -78 57 c-141 105 -519 335 -549 335 l-13 0 -26 -47 c-14 -27 -44 -68 -66 -92 l-40 -45 162 -87 c89 -48 189 -102 222 -121 l60 -34 -2 -29 c-1 -16 -4 -34 -7 -41 l-5 -13 -103 56 c-117 63 -288 165 -334 200 l-31 23 -15 0 -15 0 -79 -52 c-68 -44 -176 -100 -264 -136 l-25 -10 50 -22 c28 -12 106 -46 175 -75 69 -29 175 -74 235 -100 61 -25 156 -65 212 -88 l103 -42 0 -13 0 -13 -42 -18 c-24 -10 -76 -26 -115 -36 -40 -9 -73 -20 -72 -24 0 -3 32 -29 72 -57 40 -29 138 -109 220 -178 l147 -127 0 -24 0 -24 -10 -6 -10 -6 0 -44 0 -43 31 -69 31 -68 19 -74 19 -74 0 -49 0 -49 -11 -22 c-6 -12 -19 -31 -29 -42 l-17 -20 -12 -95 c-7 -52 -28 -179 -47 -281 l-34 -187 0 -41 0 -40 47 -8 48 -8 195 0 195 0 80 23 79 23 58 31 58 31 56 56 c31 31 62 68 70 84 l15 27 39 -6 39 -6 33 20 33 21 28 36 c15 19 32 35 38 35 6 0 35 -21 65 -47 l54 -47 0 -11 c0 -6 -22 -34 -49 -63 l-49 -52 -75 -113 c-152 -228 -253 -432 -374 -752 -49 -132 -134 -408 -152 -497 l-12 -56 -32 -15 c-18 -8 -97 -41 -177 -72 -124 -50 -255 -108 -269 -121 -2 -2 38 -48 90 -101 52 -54 132 -142 177 -196 l82 -98 0 -22 c0 -12 -7 -72 -15 -134 -8 -62 -24 -217 -36 -345 l-20 -233 -6 -385 -6 -385 12 -235 c12 -236 35 -568 46 -647 l6 -43 20 0 19 0 298 282 299 283 54 19 c193 66 577 251 834 400 373 218 780 516 1078 789 l85 78 53 -32 c310 -182 768 -343 1179 -413 l145 -25 143 -12 142 -12 238 6 237 5 115 16 c264 38 523 106 765 203 l140 56 135 68 c74 37 158 81 185 98 l50 29 20 -18 c85 -78 434 -313 675 -454 l165 -97 225 -113 c368 -184 687 -314 1053 -426 l128 -40 107 -68 c308 -196 462 -292 471 -292 l11 0 5 23 c11 49 46 332 61 487 l15 165 6 345 6 345 -12 200 c-13 227 -31 404 -62 602 l-20 136 62 63 63 63 -20 22 c-10 12 -51 46 -90 75 l-71 53 -36 143 c-20 79 -59 215 -87 302 l-52 158 -65 156 c-143 346 -312 635 -528 907 -40 50 -82 99 -94 109 l-21 19 0 18 0 18 11 6 10 7 25 -23 25 -24 107 0 107 -1 7 -62 7 -63 28 -39 c16 -21 51 -57 78 -79 l48 -40 56 -20 56 -21 80 -11 80 -11 85 7 c47 3 121 13 165 21 l80 15 22 15 22 14 12 42 11 43 -7 70 c-8 92 -40 236 -71 327 l-24 72 -26 37 -25 37 -1 51 0 51 31 55 31 55 16 68 16 67 -1 90 0 90 -10 53 c-6 29 -22 82 -37 118 l-26 65 26 38 27 38 42 30 c53 38 183 103 265 133 l62 23 -11 13 c-6 7 -43 26 -84 43 l-73 31 -68 10 c-38 5 -91 13 -118 16 l-50 6 -33 33 -33 33 0 46 0 47 16 32 c10 18 51 76 93 131 l75 99 86 74 85 74 102 68 102 68 158 80 c87 44 195 95 241 113 l83 33 -8 7 c-4 4 -26 13 -48 20 -22 7 -94 38 -160 68 -66 30 -131 56 -145 59 l-25 4 -40 -48 c-56 -67 -436 -491 -528 -588 l-76 -80 -1 13 c0 6 8 20 18 30 9 10 18 25 20 32 11 48 264 370 460 584 l91 100 -45 50 c-25 27 -52 62 -60 78 l-15 28 -13 0 -13 0 -74 -64 c-116 -100 -207 -198 -347 -373 -138 -174 -282 -379 -367 -525 l-52 -89 -6 15 -6 16 33 98 c19 53 39 109 45 125 l11 27 9 0 10 0 72 98 c153 207 323 404 527 614 l133 136 -40 96 c-23 52 -41 97 -41 100 0 3 -9 30 -21 61 l-20 55 -26 0 -26 0 -39 -41 c-111 -117 -234 -312 -375 -599 -53 -107 -98 -197 -100 -199 -9 -12 -14 16 -23 120 -5 63 -15 145 -21 182 l-11 68 12 47 c6 26 25 76 42 112 65 138 77 166 84 193 l6 27 -19 0 c-10 0 -54 -16 -98 -35 -44 -19 -85 -35 -92 -35 l-11 0 -18 52 c-31 95 -102 249 -165 358 l-61 107 -77 104 c-167 224 -381 427 -621 589 -47 32 -95 68 -107 81 -25 28 -73 122 -98 194 l-18 50 -4 125 -4 125 19 70 c11 39 23 80 27 93 l7 22 -31 0 -32 0 -28 -15 -28 -14 -57 -63 -56 -63 -27 -68 -26 -68 -14 5 c-7 3 -48 30 -91 59 -191 133 -426 265 -542 302 -119 38 -274 134 -334 205 -14 17 -29 30 -35 30 l-11 0 0 -28 c0 -15 7 -54 15 -87 l16 -58 -9 -9 -9 -9 -322 130 c-177 72 -351 144 -386 160 l-65 30 -4 13 c-3 7 -8 84 -11 170 l-7 157 -47 15 c-143 46 -392 97 -601 121 l-124 15 -196 4 c-107 2 -217 2 -245 0z m3985 -2939 c0 -1 -9 -47 -20 -101 -12 -55 -30 -169 -41 -254 l-20 -155 -5 -160 c-3 -88 -7 -175 -10 -194 l-6 -34 -40 40 -40 41 1 113 c1 63 6 157 12 209 12 111 60 355 89 452 l21 67 29 -11 c17 -5 30 -11 30 -13z m250 -268 c-35 -142 -102 -461 -133 -632 l-23 -130 -19 -4 -18 -3 7 63 c3 35 26 163 51 285 l45 221 41 144 c23 79 45 152 51 162 l9 18 8 -5 8 -6 -27 -113z m-7973 -89 c28 -46 72 -126 98 -178 l46 -95 36 -112 36 -112 -8 -18 c-5 -10 -9 -20 -10 -23 -1 -3 -5 -13 -10 -23 l-8 -18 -52 138 c-54 142 -104 258 -172 399 l-39 81 10 22 c5 11 12 21 15 21 4 0 30 -37 58 -82z m-125 -358 c165 -334 188 -384 188 -406 0 -8 -16 -40 -36 -72 l-37 -56 -72 209 c-108 315 -179 489 -233 569 -15 22 -31 46 -35 52 l-7 11 41 -1 41 -1 150 -305z"/>
</g>
<g id="layer104" fill="#a28072" stroke="none">
<path d="M5815 11034 c-301 -23 -517 -61 -712 -125 l-63 -21 0 -158 0 -158 -78 -40 c-231 -118 -573 -347 -704 -471 l-58 -54 0 15 c0 22 56 177 84 233 14 28 26 53 26 58 l0 7 -17 0 -16 0 -105 -56 c-58 -30 -146 -83 -196 -117 l-91 -62 -91 -90 c-50 -49 -105 -110 -122 -133 l-31 -44 -5 24 c-4 19 -8 82 -20 308 l-1 25 -21 3 -22 3 -6 -33 c-7 -40 -69 -173 -85 -183 l-11 -6 5 -10 6 -9 -94 -93 -94 -94 -85 -56 -84 -57 -95 -44 -94 -45 -130 -41 c-178 -57 -227 -76 -320 -126 l-80 -42 -80 -60 -81 -60 -96 -101 -96 -100 -61 -92 c-144 -219 -243 -485 -285 -769 -19 -126 -36 -320 -36 -411 l0 -67 64 5 65 6 152 -309 c167 -341 189 -388 189 -411 l0 -16 -62 -93 -61 -93 -58 87 c-32 48 -94 130 -137 183 -44 53 -85 106 -91 117 l-12 22 -12 0 -13 0 8 -92 c4 -51 9 -122 10 -158 l2 -65 13 -33 13 -33 -22 6 c-13 2 -70 10 -127 15 l-104 11 -7 -11 -7 -12 -78 57 c-141 105 -519 335 -549 335 l-13 0 -26 -47 c-14 -27 -44 -68 -66 -92 l-40 -45 82 -44 c183 -97 357 -194 362 -201 l4 -8 -30 -144 -30 -144 -32 -31 -32 -32 -35 -14 c-19 -8 -68 -23 -107 -32 -40 -10 -73 -21 -72 -25 0 -3 32 -29 72 -57 40 -29 138 -109 220 -178 l147 -127 0 -24 0 -24 -10 -6 -10 -6 0 -44 0 -43 31 -69 31 -68 19 -74 19 -74 0 -49 0 -49 -11 -22 c-6 -12 -19 -31 -29 -42 l-17 -20 -12 -95 c-7 -52 -28 -179 -47 -281 l-34 -187 0 -41 0 -40 47 -8 48 -8 195 0 195 0 80 23 79 23 58 31 58 31 56 56 c31 31 62 68 70 84 l15 27 39 -6 39 -6 33 20 33 21 28 36 c15 19 32 35 38 35 6 0 35 -21 65 -47 l54 -47 0 -11 c0 -6 -22 -34 -49 -63 l-49 -52 -75 -113 c-152 -228 -253 -432 -374 -752 -49 -132 -134 -408 -152 -497 l-12 -56 -32 -15 c-18 -8 -97 -41 -177 -72 -124 -50 -255 -108 -269 -121 -2 -2 38 -48 90 -101 52 -54 132 -142 177 -196 l82 -98 0 -22 c0 -12 -7 -72 -15 -134 -8 -62 -24 -217 -36 -345 l-20 -233 -6 -385 -6 -385 12 -235 c12 -236 35 -568 46 -647 l6 -43 20 0 19 0 298 282 299 283 54 19 c193 66 577 251 834 400 373 218 780 516 1078 789 l85 78 53 -32 c310 -182 768 -343 1179 -413 l145 -25 143 -12 142 -12 238 6 237 5 115 16 c264 38 523 106 765 203 l140 56 135 68 c74 37 158 81 185 98 l50 29 20 -18 c85 -78 434 -313 675 -454 l165 -97 225 -113 c368 -184 687 -314 1053 -426 l128 -40 107 -68 c308 -196 462 -292 471 -292 l11 0 5 23 c11 49 46 332 61 487 l15 165 6 345 6 345 -12 200 c-13 227 -31 404 -62 602 l-20 136 62 63 63 63 -20 22 c-10 12 -51 46 -90 75 l-71 53 -36 143 c-20 79 -59 215 -87 302 l-52 158 -65 156 c-143 346 -312 635 -528 907 -40 50 -82 99 -94 109 l-21 19 0 18 0 18 11 6 10 7 25 -23 25 -24 107 0 107 -1 7 -62 7 -63 28 -39 c16 -21 51 -57 78 -79 l48 -40 56 -20 56 -21 80 -11 80 -11 85 7 c47 3 121 13 165 21 l80 15 22 15 22 14 12 42 11 43 -7 70 c-8 92 -40 236 -71 327 l-24 72 -26 37 -25 37 -1 51 0 51 31 55 31 55 16 68 16 67 -1 90 0 90 -10 53 c-6 29 -22 82 -37 118 l-26 65 26 38 27 38 42 30 c53 38 183 103 265 133 l62 23 -11 13 c-6 7 -43 26 -84 43 l-73 31 -68 10 c-38 5 -91 13 -118 16 l-50 6 -33 33 -33 33 0 47 0 46 11 20 10 20 -16 83 -16 82 62 95 c115 173 274 373 457 573 l91 100 -45 50 c-25 27 -52 62 -60 78 l-15 28 -13 0 -13 0 -74 -64 c-116 -100 -207 -198 -349 -376 l-132 -165 -113 -170 -113 -170 -51 -95 c-28 -52 -51 -91 -51 -86 0 13 52 174 94 290 20 54 36 100 36 102 0 2 -11 9 -24 16 l-24 13 53 122 53 121 -9 9 -9 9 -10 115 c-5 63 -15 144 -21 182 l-11 67 -14 0 -14 0 0 -13 c0 -7 -27 -94 -59 -193 l-60 -179 -28 -135 -27 -135 -39 -52 c-22 -29 -50 -59 -63 -68 l-23 -15 -36 0 -36 0 -31 16 -31 16 7 61 c9 86 80 439 116 575 17 62 51 175 76 250 l46 137 13 11 c8 6 39 16 70 23 l56 13 -7 21 c-18 63 -92 234 -136 317 -105 199 -227 363 -401 539 l-112 113 -97 79 c-54 43 -138 105 -186 138 -48 32 -97 69 -109 82 -25 28 -73 122 -98 194 l-18 50 -4 125 -4 125 19 70 c11 39 23 80 27 93 l7 22 -31 0 -32 0 -28 -15 -28 -14 -57 -63 -56 -63 -27 -68 -26 -68 -14 5 c-7 3 -48 30 -91 59 -191 133 -426 265 -542 302 -119 38 -274 134 -334 205 -14 17 -29 30 -35 30 l-11 0 0 -28 c0 -15 7 -54 15 -87 l16 -58 -9 -9 -9 -9 -322 130 c-177 72 -351 144 -386 160 l-65 30 -4 13 c-3 7 -8 84 -11 170 l-7 157 -47 15 c-143 46 -392 97 -601 121 l-124 15 -196 4 c-107 2 -217 2 -245 0z m3707 -2653 l77 -117 60 -66 60 -65 38 -18 c21 -10 39 -19 41 -20 1 -1 -7 -46 -18 -101 -11 -54 -30 -169 -41 -254 l-20 -155 -6 -175 c-3 -96 -9 -183 -12 -193 l-7 -18 -78 81 -79 81 -13 -5 -12 -5 4 -38 c3 -21 22 -221 44 -446 l39 -407 7 -13 c13 -22 -5 -2 -29 34 l-24 35 -36 135 c-65 243 -110 487 -142 779 l-16 145 -6 305 -6 306 12 184 c7 102 15 196 18 209 l6 24 31 -53 c17 -29 66 -105 108 -169z m-7197 -311 c46 -159 89 -373 115 -570 l20 -155 12 -240 12 -241 -10 -228 -10 -228 -15 -8 -14 -9 -3 37 c-1 20 -9 107 -18 192 l-16 155 -24 135 c-14 74 -34 170 -45 213 l-21 77 -14 0 -14 0 -12 -19 -12 -19 -52 136 c-53 142 -103 257 -172 400 l-40 83 77 122 c43 67 106 166 141 220 l63 99 8 -14 c4 -7 24 -69 44 -138z"/>
</g>
<g id="layer105" fill="#c6ac9e" stroke="none">
<path d="M5815 11034 c-301 -23 -517 -61 -712 -125 l-63 -21 0 -158 0 -159 -10 -6 -10 -6 0 -102 c0 -94 -11 -234 -26 -332 l-6 -40 -111 -75 c-147 -99 -281 -204 -417 -326 l-111 -99 -90 -100 c-50 -55 -123 -144 -162 -197 l-72 -98 -3 10 -4 10 29 63 c15 34 54 115 85 180 32 65 58 123 58 129 l0 10 -62 -7 c-35 -4 -90 -13 -123 -22 l-60 -14 -90 -43 -90 -43 -85 -63 -85 -63 -84 -86 c-46 -47 -97 -105 -114 -128 l-30 -42 -7 4 c-4 3 -10 22 -14 43 l-6 39 -31 42 -30 43 59 161 c71 190 142 433 142 481 l0 16 -14 0 -13 0 -82 -80 -82 -80 -83 -55 -82 -55 -95 -44 -94 -45 -130 -41 c-178 -57 -227 -76 -320 -126 l-80 -42 -80 -60 -81 -60 -96 -101 -96 -100 -61 -92 c-144 -219 -243 -485 -285 -769 -19 -126 -36 -320 -36 -411 l0 -67 64 5 65 6 152 -309 c167 -341 189 -388 189 -411 l0 -16 -62 -93 -61 -93 -58 87 c-32 48 -94 130 -137 183 -44 53 -85 106 -91 117 l-12 22 -12 0 -13 0 8 -92 c4 -51 9 -122 10 -158 l2 -65 13 -33 13 -33 -22 6 c-13 2 -70 10 -127 15 l-104 11 -7 -11 -7 -12 -78 57 c-141 105 -519 335 -549 335 l-13 0 -26 -47 c-14 -27 -44 -68 -66 -92 l-40 -45 82 -44 c183 -97 357 -194 362 -201 l4 -8 -30 -144 -30 -144 -32 -31 -32 -32 -35 -14 c-19 -8 -68 -23 -107 -32 -40 -10 -73 -21 -72 -25 0 -3 32 -29 72 -57 40 -29 138 -109 220 -178 l147 -127 0 -24 0 -24 -10 -6 -10 -6 0 -44 0 -43 31 -69 31 -68 19 -74 19 -74 0 -49 0 -49 -11 -22 c-6 -12 -19 -31 -29 -42 l-17 -20 -12 -95 c-7 -52 -28 -179 -47 -281 l-34 -187 0 -41 0 -40 47 -8 48 -8 195 0 195 0 80 23 79 23 58 31 58 31 56 56 c31 31 62 68 70 84 l15 27 39 -6 39 -6 33 20 33 21 28 36 c15 19 32 35 38 35 6 0 35 -21 65 -47 l54 -47 0 -11 c0 -6 -22 -34 -49 -63 l-49 -52 -75 -113 c-152 -228 -253 -432 -374 -752 -49 -132 -134 -408 -152 -497 l-12 -56 -32 -15 c-18 -8 -97 -41 -177 -72 -124 -50 -255 -108 -269 -121 -2 -2 38 -48 90 -101 52 -54 132 -142 177 -196 l82 -98 0 -22 c0 -12 -7 -72 -15 -134 -8 -62 -24 -217 -36 -345 l-20 -233 -6 -385 -6 -385 12 -235 c12 -236 35 -568 46 -647 l6 -43 20 0 19 0 298 282 299 283 54 19 c193 66 577 251 834 400 373 218 780 516 1078 789 l85 78 53 -32 c310 -182 768 -343 1179 -413 l145 -25 143 -12 142 -12 238 6 237 5 115 16 c264 38 523 106 765 203 l140 56 135 68 c74 37 158 81 185 98 l50 29 20 -18 c85 -78 434 -313 675 -454 l165 -97 225 -113 c368 -184 687 -314 1053 -426 l128 -40 107 -68 c308 -196 462 -292 471 -292 l11 0 5 23 c11 49 46 332 61 487 l15 165 6 345 6 345 -12 200 c-13 227 -31 404 -62 602 l-20 136 62 63 63 63 -20 22 c-10 12 -51 46 -90 75 l-71 53 -36 143 c-20 79 -59 215 -87 302 l-52 158 -65 156 c-143 346 -312 635 -528 907 -40 50 -82 99 -94 109 l-21 19 0 18 0 18 11 6 10 7 25 -23 25 -24 107 0 107 -1 7 -62 7 -63 28 -39 c16 -21 51 -57 78 -79 l48 -40 56 -20 56 -21 80 -11 80 -11 85 7 c47 3 121 13 165 21 l80 15 22 15 22 14 12 42 11 43 -7 70 c-8 92 -40 236 -71 327 l-24 72 -26 37 -25 37 -1 51 0 51 31 55 31 55 16 68 16 67 -1 90 0 90 -10 53 c-6 29 -22 82 -37 118 l-26 65 26 38 27 38 42 30 c53 38 183 103 265 133 l62 23 -11 13 c-6 7 -43 26 -84 43 l-73 31 -68 10 c-38 5 -91 13 -118 16 l-50 6 -33 33 -33 33 0 47 0 46 11 20 10 20 -16 83 -16 82 62 95 c115 173 274 373 457 573 l91 100 -45 50 c-25 27 -52 62 -60 78 l-15 28 -13 0 -13 0 -74 -64 c-116 -100 -207 -198 -349 -376 l-132 -165 -113 -170 -113 -170 -51 -95 c-28 -52 -51 -91 -51 -86 0 13 52 174 94 290 20 54 36 100 36 102 0 2 -11 9 -24 16 l-24 13 53 122 53 121 -9 9 -9 9 -10 115 c-5 63 -15 144 -21 182 l-11 67 -14 0 -14 0 0 -13 c0 -7 -27 -94 -59 -193 l-60 -179 -28 -135 -27 -135 -39 -52 c-22 -29 -50 -59 -63 -68 l-23 -15 -36 0 -36 0 -31 16 -31 16 7 61 c9 86 80 439 116 575 17 62 51 175 76 250 l46 137 13 11 c8 6 39 16 70 23 l56 13 -7 21 c-18 63 -92 234 -136 317 -105 199 -227 363 -401 539 l-112 113 -97 79 c-54 43 -138 105 -186 138 -48 32 -97 69 -109 82 -25 28 -73 122 -98 194 l-18 50 -4 125 -4 125 19 70 c11 39 23 80 27 93 l7 22 -31 0 -32 0 -27 -14 c-51 -27 -76 -74 -107 -206 l-15 -65 0 -80 1 -80 19 -55 c11 -30 19 -58 20 -62 0 -4 -36 18 -80 48 -43 30 -115 73 -159 95 l-80 40 -49 6 -49 5 -6 -9 -6 -9 24 -59 c14 -32 23 -60 21 -62 -6 -6 -184 121 -226 163 l-46 44 -32 0 -33 0 -24 -24 -25 -25 -51 57 c-43 48 -111 143 -155 217 l-10 19 -17 -7 -16 -6 -21 -42 -21 -41 -15 -67 -14 -66 -1 -105 -1 -105 -5 13 c-2 6 -9 12 -15 12 -5 0 -58 33 -116 74 -139 96 -303 199 -466 293 -72 41 -132 76 -134 78 -2 2 -11 44 -22 93 l-18 91 -12 133 -11 133 -9 20 -9 20 -6 157 -7 157 -47 15 c-143 46 -392 97 -601 121 l-124 15 -196 4 c-107 2 -217 2 -245 0z m3707 -2653 l77 -117 60 -66 60 -65 38 -18 c21 -10 39 -19 41 -20 1 -1 -7 -46 -18 -101 -11 -54 -30 -169 -41 -254 l-20 -155 -6 -175 c-3 -96 -9 -183 -12 -193 l-7 -18 -78 81 -79 81 -13 -5 -12 -5 4 -38 c3 -21 22 -221 44 -446 l39 -407 7 -13 c13 -22 -5 -2 -29 34 l-24 35 -36 135 c-65 243 -110 487 -142 779 l-16 145 -6 305 -6 306 12 184 c7 102 15 196 18 209 l6 24 31 -53 c17 -29 66 -105 108 -169z m-7197 -311 c46 -159 89 -373 115 -570 l20 -155 12 -240 12 -241 -10 -228 -10 -228 -15 -8 -14 -9 -3 37 c-1 20 -9 107 -18 192 l-16 155 -24 135 c-14 74 -34 170 -45 213 l-21 77 -14 0 -14 0 -12 -19 -12 -19 -52 136 c-53 142 -103 257 -172 400 l-40 83 77 122 c43 67 106 166 141 220 l63 99 8 -14 c4 -7 24 -69 44 -138z"/>
</g>
<g id="layer106" fill="#fdfd5c" stroke="none">
<path d="M9800 8097 c0 -3 -9 -49 -20 -103 -12 -55 -30 -169 -41 -254 l-20 -155 -6 -175 c-3 -96 -9 -183 -12 -193 l-7 -18 -78 81 -79 81 -13 -5 -12 -5 4 -38 c3 -21 22 -221 44 -446 21 -224 42 -412 45 -417 3 -6 4 -10 2 -10 -2 0 -17 20 -33 45 l-28 45 -41 20 -41 20 -22 0 c-33 0 -75 -19 -104 -47 l-28 -27 -19 -52 -20 -52 -12 -89 -12 -88 5 -157 5 -157 -52 -78 c-83 -125 -168 -270 -228 -388 l-55 -110 -21 -69 -21 -68 0 -35 0 -34 25 -23 c14 -13 58 -40 97 -60 l73 -36 65 -16 65 -16 90 5 90 5 67 25 68 26 57 39 c32 22 71 54 87 71 l30 31 28 -27 29 -28 107 0 107 -1 7 -62 7 -63 28 -39 c16 -21 51 -57 78 -79 l48 -40 56 -20 56 -21 80 -11 80 -11 85 7 c47 3 121 13 165 21 l80 15 22 15 22 14 12 42 11 43 -7 70 c-8 92 -40 236 -71 327 l-24 72 -26 37 -25 37 -1 51 0 51 31 55 31 55 16 68 16 67 -1 90 0 90 -10 53 c-6 29 -22 82 -37 118 l-26 65 26 38 27 38 42 30 c53 38 183 103 265 133 l62 23 -11 13 c-6 7 -43 26 -84 43 l-73 31 -68 10 c-38 5 -91 13 -118 16 l-50 6 -33 33 -33 33 0 47 0 46 11 20 10 20 -16 83 -16 82 62 95 c115 173 274 373 457 573 l91 100 -45 50 c-25 27 -52 62 -60 78 l-15 28 -13 0 -13 0 -74 -64 c-116 -100 -207 -198 -349 -376 l-132 -165 -113 -170 -113 -170 -51 -95 c-28 -52 -51 -91 -51 -86 0 13 52 174 95 291 l36 100 -17 12 -18 13 -32 0 c-18 0 -56 -5 -84 -11 l-51 -11 -27 -36 c-15 -20 -42 -51 -60 -69 l-33 -33 -40 0 -40 0 -31 16 -31 16 7 61 c9 85 80 438 116 572 16 61 45 160 65 220 21 61 38 115 39 120 1 6 5 16 10 23 l8 13 -7 7 -7 7 -116 0 -117 0 -27 9 c-16 4 -28 6 -28 3z"/>
<path d="M1876 7744 l-70 -24 -7 -12 -7 -11 48 -91 c27 -50 105 -208 174 -352 l126 -260 0 -18 0 -19 -62 -93 -62 -94 -27 0 c-16 0 -88 9 -161 19 -73 11 -180 25 -237 31 l-104 11 -7 -11 -7 -12 -78 57 c-141 105 -519 335 -549 335 l-13 0 -26 -47 c-14 -27 -44 -68 -66 -92 l-40 -45 82 -44 c183 -97 357 -194 362 -201 l4 -8 -30 -144 -30 -144 -32 -31 -32 -32 -35 -14 c-19 -8 -68 -23 -107 -32 -40 -10 -73 -21 -72 -25 0 -3 32 -29 72 -57 40 -29 138 -109 220 -178 l147 -127 0 -24 0 -24 -10 -6 -10 -6 0 -44 0 -43 31 -69 31 -68 19 -74 19 -74 0 -49 0 -49 -11 -22 c-6 -12 -19 -31 -29 -42 l-17 -20 -12 -95 c-7 -52 -28 -179 -47 -281 l-34 -187 0 -41 0 -40 48 -8 47 -8 195 0 195 0 80 23 79 23 58 31 58 31 56 56 c31 31 62 68 70 84 l15 27 39 -6 39 -6 33 20 33 21 28 36 28 35 12 0 13 0 74 -72 75 -71 73 -34 74 -34 80 -21 81 -20 111 3 111 4 69 34 68 33 28 45 29 46 7 45 7 44 -17 83 -16 83 -34 89 c-38 101 -134 294 -199 406 l-45 75 -31 98 -32 99 -54 110 -54 110 -46 58 -46 58 -17 6 c-9 4 -29 15 -43 26 l-27 19 -51 -3 -51 -4 0 45 c0 131 -57 515 -102 683 l-20 77 -14 0 -14 0 -12 -19 -12 -19 -51 136 c-48 125 -85 213 -174 405 l-31 67 -28 -1 c-15 0 -58 -11 -96 -25z"/>
</g>
<g id="layer107" fill="#e9c1c7" stroke="none">
<path d="M9517 7353 c-6 -11 80 -890 88 -903 3 -5 4 -10 2 -10 -2 0 -17 20 -33 45 l-28 45 -41 20 -41 20 -22 0 c-33 0 -75 -19 -104 -47 l-28 -27 -19 -52 -20 -52 -12 -89 -12 -88 5 -157 5 -157 -52 -78 c-83 -125 -168 -270 -228 -388 l-55 -110 -21 -69 -21 -68 0 -35 0 -34 25 -23 c14 -13 58 -40 97 -60 l73 -36 65 -16 65 -16 90 5 90 5 67 25 68 26 57 39 c32 22 71 54 87 71 l30 31 28 -27 29 -28 107 0 107 -1 7 -62 7 -63 28 -39 c16 -21 51 -57 78 -79 l48 -40 56 -20 56 -21 80 -11 80 -11 85 7 c47 3 121 13 165 21 l80 15 22 15 22 14 12 42 11 43 -7 70 c-8 92 -40 236 -71 327 l-24 72 -26 37 -25 37 -1 51 0 51 31 55 31 55 16 68 16 67 -1 90 0 90 -10 53 c-6 29 -22 82 -37 118 l-26 65 26 38 27 38 42 30 c53 38 183 103 265 133 l62 23 -11 13 c-6 7 -43 26 -84 43 l-73 31 -68 10 c-38 5 -91 13 -118 16 l-50 6 -33 33 -33 33 0 47 0 46 11 20 11 21 -17 81 -16 82 -18 30 -17 30 -16 0 -15 0 -183 -217 -183 -217 -9 5 -9 6 5 13 c3 8 8 40 12 72 l6 58 33 105 c18 58 50 150 70 205 l36 100 -17 12 -18 13 -32 0 c-18 0 -56 -5 -84 -11 l-51 -11 -27 -36 c-15 -20 -42 -51 -60 -69 l-33 -33 -43 0 -43 0 -64 43 -63 42 -126 122 c-69 68 -128 123 -132 123 -4 0 -9 -3 -11 -7z"/>
<path d="M2589 4647 c-41 -31 -113 -94 -128 -111 -9 -11 -28 -31 -43 -45 -16 -14 -28 -29 -28 -34 0 -5 -15 -28 -32 -50 -18 -23 -57 -77 -86 -122 l-53 -80 -74 -150 c-76 -154 -126 -276 -172 -423 l-27 -83 -40 -18 c-23 -10 -77 -31 -121 -47 -44 -16 -87 -35 -96 -42 -9 -8 -97 -47 -195 -86 -154 -62 -258 -109 -273 -122 -2 -2 38 -48 90 -101 52 -54 132 -142 177 -196 l82 -98 0 -15 0 -16 88 -110 88 -110 -7 -56 c-17 -127 -39 -456 -49 -743 l-11 -304 5 -110 c2 -61 5 -158 5 -217 l1 -108 13 0 12 0 84 140 c46 76 89 144 97 151 8 6 14 18 14 25 0 38 179 362 359 649 260 416 764 1100 1108 1504 l63 75 -3 9 -3 10 -108 31 -109 31 -38 118 -38 118 -76 146 -75 146 -72 106 c-73 110 -178 249 -237 314 l-33 37 -22 0 -21 -1 -16 -12z"/>
<path d="M9357 4433 c-126 -191 -225 -321 -341 -448 l-73 -80 -70 -57 c-62 -51 -167 -121 -197 -131 l-11 -4 78 -82 c118 -126 224 -256 390 -476 l150 -200 192 -290 c265 -400 587 -934 760 -1260 26 -49 51 -95 56 -101 l9 -11 -7 -6 -6 -7 15 0 14 0 15 -32 14 -31 18 -11 18 -11 13 18 13 17 16 123 c9 67 22 174 29 237 l12 115 0 300 1 300 -13 110 c-7 61 -22 172 -33 248 l-22 139 112 112 c61 61 111 116 111 121 0 5 28 38 62 72 l62 63 -25 26 c-13 14 -52 46 -87 71 l-62 45 -11 19 -10 20 -147 70 c-81 38 -162 78 -181 87 l-34 17 -34 80 c-150 354 -393 746 -587 948 l-55 57 -18 0 -18 0 -118 -177z"/>
</g>
<g id="layer108" fill="#e9dde5" stroke="none">
<path d="M9517 7353 c-6 -11 80 -890 88 -903 3 -5 4 -10 2 -10 -2 0 -17 20 -33 45 l-28 45 -41 20 -41 20 -22 0 c-33 0 -75 -19 -104 -47 l-28 -27 -19 -52 -20 -52 -12 -89 -12 -88 5 -157 5 -157 -52 -78 c-83 -125 -168 -270 -228 -388 l-55 -110 -21 -69 -21 -68 0 -35 0 -34 25 -23 c14 -13 58 -40 97 -60 l73 -36 65 -16 65 -16 90 5 90 5 67 25 68 26 57 39 c32 22 71 54 87 71 l30 31 28 -27 29 -28 107 0 107 -1 7 -62 7 -63 28 -39 c16 -21 51 -57 78 -79 l48 -40 56 -20 56 -21 80 -11 80 -11 85 7 c47 3 121 13 165 21 l80 15 22 15 22 14 12 42 11 43 -7 70 c-8 92 -40 236 -71 327 l-24 72 -26 37 -25 37 -1 51 0 51 31 55 31 55 16 68 16 67 -1 90 0 90 -10 53 c-6 29 -22 82 -37 118 l-26 65 26 38 27 38 42 30 c53 38 183 103 265 133 l62 23 -11 13 c-6 7 -43 26 -84 43 l-73 31 -68 10 c-38 5 -91 13 -118 16 l-50 6 -33 33 -33 33 0 47 0 46 11 20 11 21 -17 81 -16 82 -18 30 -17 30 -16 0 -15 0 -183 -217 -183 -217 -9 5 -9 6 5 16 c3 10 8 40 11 67 10 86 16 120 27 133 l10 12 -7 0 -7 0 10 13 c5 6 17 35 25 62 8 28 31 95 51 150 l37 100 -17 12 -18 13 -32 0 c-18 0 -56 -5 -84 -11 l-51 -11 -27 -36 c-15 -20 -42 -51 -60 -69 l-33 -33 -43 0 -43 0 -64 43 -63 42 -126 122 c-69 68 -128 123 -132 123 -4 0 -9 -3 -11 -7z"/>
<path d="M2596 4623 c-10 -21 -32 -69 -48 -108 l-29 -70 -39 -145 c-36 -130 -115 -500 -108 -505 50 -31 144 -105 180 -142 l47 -48 36 -60 36 -60 20 -66 20 -67 -3 -43 -3 -44 -30 2 c-16 1 -190 3 -385 3 l-355 1 -240 -10 c-352 -16 -475 -23 -475 -29 0 -3 42 -48 93 -101 51 -53 130 -140 175 -194 l82 -98 0 -16 0 -15 113 -141 c62 -78 144 -182 182 -230 l68 -89 -26 -91 c-15 -51 -34 -132 -43 -182 l-17 -90 -4 -197 -5 -196 12 -102 c6 -56 14 -108 17 -116 l5 -14 14 0 14 0 55 109 c229 457 684 1131 1196 1772 l161 201 -14 14 -14 14 -104 24 -105 23 -2 49 c-1 27 -8 141 -14 254 -7 113 -13 223 -13 245 l-1 40 -54 90 c-68 113 -192 287 -274 385 l-63 75 -20 3 -20 3 -18 -38z"/>
<path d="M9469 4608 c0 -2 -2 -21 -4 -43 -4 -58 -59 -271 -106 -410 l-40 -120 -55 -115 c-104 -217 -225 -378 -339 -451 l-30 -19 13 0 12 0 0 -11 c0 -6 26 -43 58 -82 33 -40 114 -146 182 -237 l123 -165 192 -290 c261 -393 570 -905 756 -1252 l44 -83 16 0 17 0 6 17 7 17 0 215 0 216 -15 125 c-20 167 -50 318 -92 462 -19 66 -34 127 -34 137 l0 17 43 60 c49 67 217 252 326 359 39 38 71 74 71 79 0 6 28 39 63 74 l62 63 -50 46 c-27 25 -58 49 -70 53 -11 4 -83 16 -160 26 l-140 19 -280 0 -280 0 -85 -18 c-47 -10 -104 -27 -128 -37 l-43 -19 21 29 c33 46 97 188 131 291 l31 94 -1 66 c-2 91 -36 389 -62 529 l-21 114 -25 81 c-14 44 -34 99 -45 123 l-20 42 -24 0 c-13 0 -24 -1 -25 -2z"/>
</g>
<g id="layer109" fill="#f8eae3" stroke="none">
<path d="M5900 10547 c-115 -43 -281 -117 -450 -201 -388 -194 -707 -408 -995 -666 l-110 -99 -92 -103 c-120 -135 -174 -208 -263 -353 -85 -141 -111 -196 -156 -330 l-33 -100 10 -10 10 -10 32 19 c18 11 66 37 106 58 l75 38 90 30 c50 16 120 36 155 44 l64 15 10 -6 9 -5 -45 -47 c-75 -78 -147 -171 -227 -292 l-77 -116 -60 -119 c-155 -306 -250 -638 -294 -1034 l-12 -105 0 -230 0 -230 11 -80 11 -81 128 -129 128 -130 74 -100 c40 -55 104 -149 142 -210 l70 -110 100 -200 c54 -110 116 -243 137 -295 l38 -95 21 -3 21 -3 18 48 c40 111 109 266 170 383 l65 124 73 111 c40 60 106 153 147 205 l73 95 136 139 135 138 120 97 c188 151 396 282 574 362 l84 37 51 -30 c347 -205 700 -565 1097 -1120 129 -180 289 -429 380 -590 l44 -78 11 0 c18 0 28 18 69 130 126 343 351 742 595 1053 l91 118 19 97 c10 53 26 160 35 237 l17 140 0 205 0 205 -16 130 c-9 72 -28 182 -42 245 l-25 115 -46 137 -45 137 -62 128 c-103 211 -216 378 -354 525 l-65 68 7 7 6 6 68 -12 c61 -11 178 -48 259 -82 l32 -13 6 6 7 6 -80 122 -81 121 -56 109 c-30 60 -71 149 -89 197 l-34 88 -18 85 -17 85 -28 27 c-16 14 -77 60 -136 101 -322 223 -749 466 -1293 735 l-255 126 -105 3 -105 3 -65 -23z"/>
<path d="M9517 7353 c-6 -11 80 -890 88 -903 l6 -10 -9 0 -10 0 -6 23 -5 22 -31 32 -31 32 -35 11 -35 12 -35 -7 -34 -6 -35 -30 -34 -30 -20 -54 -20 -53 -12 -89 -12 -88 5 -157 5 -157 -52 -78 c-83 -125 -168 -270 -228 -388 l-55 -110 -21 -69 -21 -68 0 -35 0 -34 25 -23 c14 -13 58 -40 97 -60 l73 -36 65 -16 65 -16 90 5 90 5 67 25 68 26 57 39 c32 22 71 54 87 71 l30 31 28 -27 29 -28 107 0 107 -1 7 -62 7 -63 28 -39 c16 -21 51 -57 78 -79 l48 -40 56 -20 56 -21 80 -11 80 -11 85 7 c47 3 121 13 165 21 l80 15 22 15 22 14 12 42 11 43 -7 70 c-8 92 -40 236 -71 327 l-24 72 -26 37 -25 37 -1 51 0 51 31 55 31 55 16 68 16 67 -1 90 0 90 -10 53 c-6 29 -22 82 -37 118 l-26 65 26 38 27 38 42 30 c53 38 183 103 265 133 l62 23 -11 13 c-6 7 -43 26 -84 43 l-73 31 -68 10 c-38 5 -91 13 -118 16 l-50 6 -33 33 -33 33 0 45 0 46 10 26 10 26 -16 77 -16 77 -17 30 -17 30 -16 0 -15 0 -184 -218 -183 -217 -7 7 -8 8 8 35 c4 20 6 44 5 55 -2 11 2 44 8 73 l11 52 10 0 10 0 -6 7 -7 6 9 11 c5 6 16 34 24 61 8 28 31 95 51 150 l37 100 -17 12 -18 13 -32 0 c-18 0 -56 -5 -84 -11 l-51 -11 -27 -36 c-15 -20 -42 -51 -60 -69 l-33 -33 -43 0 -43 0 -64 43 -63 42 -126 122 c-69 68 -128 123 -132 123 -4 0 -9 -3 -11 -7z"/>
<path d="M2273 7188 c-5 -7 -33 -53 -62 -103 -66 -115 -65 -113 -135 -222 l-60 -93 -26 0 c-14 0 -104 11 -200 24 -96 13 -205 27 -242 31 l-68 7 0 -12 c0 -7 17 -33 38 -59 62 -74 198 -319 190 -342 l-3 -8 -96 84 c-53 46 -164 147 -245 224 l-149 141 -20 -2 -19 -3 -13 -45 c-7 -25 -27 -110 -44 -190 l-30 -145 -32 -31 -32 -32 -35 -14 c-19 -8 -68 -23 -107 -32 -40 -10 -73 -21 -72 -25 0 -3 32 -29 72 -57 40 -29 138 -109 219 -178 l148 -127 0 -24 0 -24 -10 -6 -10 -6 0 -44 0 -43 31 -69 31 -68 19 -74 19 -74 0 -49 0 -49 -11 -22 c-6 -12 -19 -31 -29 -42 l-17 -20 -12 -95 c-7 -52 -28 -179 -47 -281 l-34 -187 0 -41 0 -40 48 -8 47 -8 195 0 195 0 80 23 79 23 58 31 58 31 56 56 c31 31 62 68 70 84 l15 27 39 -6 39 -6 33 20 33 21 28 36 28 35 12 0 13 0 74 -72 75 -71 73 -34 74 -34 80 -21 81 -20 111 3 111 4 69 34 68 33 28 45 29 46 7 45 7 44 -17 83 -16 83 -34 89 c-38 101 -134 294 -199 406 l-45 75 -31 98 -32 99 -54 110 -54 110 -46 58 -46 58 -17 6 c-9 4 -29 15 -43 26 l-27 19 -51 -3 -51 -4 0 45 c0 131 -57 515 -102 683 l-20 77 -13 0 c-7 0 -17 -6 -22 -12z"/>
<path d="M2590 4608 c-13 -29 -24 -57 -24 -63 -1 -5 -7 -16 -14 -24 l-13 -14 5 -23 6 -24 -10 0 -10 0 0 -15 0 -15 -9 0 -9 0 0 -36 0 -37 -13 -7 -12 -8 0 -34 0 -33 -14 -14 -15 -14 5 -18 5 -19 -10 0 -10 0 5 -20 5 -19 -10 -3 -9 -3 -1 -43 0 -42 -12 0 -11 0 15 -10 15 -10 -13 -8 -13 -9 -1 -31 -1 -32 -11 0 -11 0 15 -10 15 -10 -11 0 -12 0 -5 -20 -5 -20 8 0 7 0 -5 -25 -4 -25 -8 0 -8 0 -4 -32 -5 -32 11 -12 c7 -6 26 -19 44 -28 l31 -16 80 -75 c45 -41 78 -75 74 -75 -3 0 1 -8 9 -17 9 -10 26 -38 38 -63 13 -25 27 -48 32 -51 5 -3 9 -9 9 -13 -1 -3 -1 -7 0 -8 0 -2 3 -16 5 -32 3 -16 9 -37 13 -45 l7 -16 0 -60 -1 -60 -450 -3 c-426 -3 -525 -5 -810 -18 -66 -3 -144 -5 -174 -4 l-54 1 84 -88 c46 -48 121 -132 167 -186 l82 -98 0 -16 0 -15 98 -120 c53 -66 106 -132 117 -147 10 -14 28 -34 40 -44 11 -10 20 -22 20 -27 0 -5 11 -18 24 -29 l24 -21 -9 0 -9 -1 19 -14 c11 -8 17 -15 13 -15 -4 0 1 -9 10 -19 l16 -20 1 -30 1 -31 -7 0 c-3 0 -9 -19 -13 -42 l-7 -42 -14 -14 -14 -13 -1 -27 c-1 -15 0 -35 1 -46 l2 -19 -14 -8 -13 -9 13 0 13 0 -11 -20 -11 -20 7 0 c3 0 1 -6 -5 -14 l-12 -15 6 -45 7 -46 -11 0 -11 0 0 -174 0 -175 11 -7 11 -7 -13 -8 -14 -9 10 0 10 0 1 -58 c0 -31 3 -69 7 -84 l7 -28 15 0 15 0 55 109 c225 449 683 1130 1175 1745 77 97 137 176 133 176 -5 1 6 12 22 26 l30 24 -30 -1 -30 -2 -60 16 c-33 8 -79 18 -102 22 l-43 7 -6 10 c-4 6 -9 56 -11 112 -4 119 -12 257 -18 341 -3 33 -6 77 -8 98 l-2 37 12 0 13 0 0 25 0 25 -47 78 c-62 103 -188 280 -266 372 l-63 75 -20 3 -21 3 -23 -53z"/>
<path d="M9500 4580 l0 -10 21 0 20 0 -6 10 c-3 6 -13 10 -21 10 l-14 0 0 -10z"/>
<path d="M9479 4548 c-1 -2 -3 -16 -5 -33 -8 -60 -10 -71 -18 -83 l-7 -12 6 -9 5 -10 -9 -5 -9 -6 -8 -43 c-5 -23 -9 -46 -10 -52 0 -5 -6 -23 -13 -39 l-12 -29 6 -5 5 -5 -11 -14 -11 -13 7 0 7 0 -12 -15 -12 -15 7 0 7 0 -12 -15 -12 -15 7 0 7 0 -11 -13 -11 -14 7 -6 6 -7 -11 0 -10 0 -7 -30 c-4 -16 -6 -33 -5 -36 1 -4 -2 -10 -7 -13 -5 -3 -23 -39 -41 -80 -18 -40 -50 -103 -71 -140 -21 -36 -47 -82 -57 -101 -10 -19 -26 -40 -34 -47 l-15 -12 8 -1 c5 0 -6 -12 -23 -26 -17 -15 -29 -29 -26 -31 3 -3 -29 -35 -69 -71 l-74 -66 22 -37 c12 -20 91 -129 176 -241 l154 -203 192 -290 c262 -394 570 -906 756 -1252 l44 -83 16 0 17 0 6 17 7 17 -2 114 -1 114 -15 5 -15 6 14 8 13 8 1 106 1 105 -8 0 -7 0 5 20 5 20 -12 100 -12 100 -9 0 -9 0 4 25 5 25 -10 0 -9 0 4 25 5 25 -9 0 -9 0 1 47 1 47 -11 4 -10 3 5 19 5 20 -10 0 -10 0 5 20 5 20 -11 0 -10 0 5 15 6 15 -12 0 -12 0 5 14 6 15 -9 3 -9 3 -5 35 c-3 19 -8 47 -12 63 l-6 27 11 0 12 0 -6 10 -6 10 9 0 c4 0 19 14 31 31 l23 31 -13 9 -14 9 18 0 18 0 -5 9 -6 9 28 17 c15 10 37 27 50 38 l22 21 -12 7 -12 8 30 12 c40 18 41 19 24 29 l-15 10 18 0 19 0 114 112 114 111 0 11 c0 6 28 39 63 74 l62 63 -43 40 -43 41 -23 -6 -24 -6 -98 15 c-55 7 -110 14 -124 15 -14 0 -52 3 -85 5 -47 4 -347 7 -523 5 -39 0 -172 -30 -229 -51 l-53 -20 0 -10 c0 -5 -4 -9 -8 -9 l-8 0 -2 25 -2 24 35 58 35 58 41 104 c22 57 42 113 43 125 2 11 8 34 15 49 6 16 11 32 11 37 0 4 6 10 14 13 l14 6 -4 78 c-2 43 -4 93 -4 111 l0 32 -9 0 -10 0 5 45 5 45 -12 0 -11 0 5 21 6 21 -6 14 -5 14 -17 0 -16 0 15 10 15 9 0 31 1 30 -9 0 -8 0 5 30 4 30 -8 0 -9 0 1 48 0 49 -18 64 -18 64 -9 6 -10 7 7 11 7 11 -11 0 -11 0 3 17 3 17 -25 7 -25 7 13 1 12 1 0 15 0 15 -30 0 c-16 0 -31 -1 -31 -2z"/>
</g>


</svg>