<svg version="1" xmlns="http://www.w3.org/2000/svg" width="933.333" height="933.333" viewBox="0 0 700.000000 700.000000"><path d="M90.7 23.7C89.9 25 89.1 32 88.5 42c-.3 5.2-.8 12.6-1.2 16.5-1.4 15.1-.4 62.5 1.8 84.7 1.2 12.3 1.7 22.3 1.2 23.2-.4.8-5 6-10.1 11.6-5.8 6.3-9 10.6-8.4 11.2.5.5 6.7 3.3 13.8 6.2l12.8 5.4 3.8 13.1c4.6 16 12.4 35.7 18.5 47.1 5.1 9.5 13.1 21.8 16.9 25.8 1.3 1.5 2.4 3 2.4 3.4 0 .3-1.4 1.8-3.1 3.3l-3.2 2.6-2.8-3c-2-2.2-3.7-3.1-6.1-3.2-2.7 0-4-.9-6.8-4.4-3.4-4.2-9.8-8.1-16.9-10.4-3.6-1.2-24.8-1.5-30-.5-3.6.7-3.6-1 .4 23.1 1.5 8.6 3.4 16.7 4.2 18 2.1 3.2 1.2 11.1-2.1 19.1-2.7 6.5-3.3 10.8-1.5 11.4.5.2.7 1 .4 1.8-.5 1.3-17.8 15.9-23.9 20.3-2.2 1.6-1.9 1.9 5.4 4.2 3 1 5.8 2.1 6.3 2.4.5.5-26.3 12.4-41.9 18.5-3.4 1.4-3 2.1 2 4 2.5 1 7.2 3.5 10.6 5.7 3.3 2.1 6.4 3.9 6.7 3.9 1 0 7.3 7.3 9 10.4 1.1 2.1 1.6 6.2 1.7 14.7 0 6.4.4 12.1.8 12.4 1 1 6.2-2.2 18.6-11.2 11.1-8.1 23.3-19.6 28.2-26.8 3.5-5.1 4.2-5.5 3.6-2.3-.3 1.3-.5 5.2-.5 8.6l-.1 6.4-12.3 12.5c-6.7 6.8-12.3 12.9-12.5 13.4-.2.5 2.5.9 6 1 9.2.1 15.1.7 15.9 1.6.4.5 1 5.1 1.3 10.3 1.4 19.4 3.7 30.7 9.1 44.6 10.2 25.8 28.4 43.2 54 51.4 17.1 5.5 27.5 11.3 36.7 20.5 2.9 2.9 5.4 5.6 5.6 5.9 1.6 3.1 5.2 11.9 5.2 12.6 0 .6.7 1 1.5 1 1 0 1.6-1.1 1.7-3.3 0-1.7.2-3.7.3-4.2.2-.6.3-3.7.4-7l.1-6 7.4 7.8c5.5 5.8 10.3 9.5 18.2 14.3 11.3 6.7 15.4 8.1 13.4 4.3-1.6-2.9-6.1-14.9-5.6-14.9.3 0 2.8 2.1 5.8 4.6 6.5 5.6 24.7 17.7 34.8 23.2l7.5 4.1.3 9.4.3 9.5 8.2 2.2c20.8 5.6 50.8 7.5 72.2 4.6 12.3-1.7 31.9-6 34.4-7.5.9-.6 1.5-3.8 1.8-10.2.3-5.2.8-9.7 1.2-10 .9-.9 39.5-16.7 42.7-17.5 2.2-.6 2.6-.4 2.1.9-.3.8-.9 3.2-1.3 5.1-.5 2.9-.3 3.6.9 3.6.9 0 2-.6 2.4-1.4 1.3-2.2 12.2-9.4 16.2-10.7 6.3-2 19.3-8.9 29.4-15.5 5.4-3.5 10.1-6.4 10.5-6.4.5 0 1.4 1.6 2.1 3.6 2.5 6.9 11.8 15.1 14.3 12.6.6-.6.4-3-.6-6-3.3-11.3.8-29.5 8-35 1.6-1.3 6.3-4.8 10.4-7.9 20.2-15 37.1-36.2 45.2-56.8 1.8-4.7 3.8-8.5 4.3-8.5.6 0 3.4.9 6.3 2 6.3 2.4 6.5 1.8 2.6-6.8-5-10.9-5.5-12.9-4.4-19.6.5-3.3 1-7.8 1-9.8 0-2 .4-3.9.8-4.2.4-.2 3.2 4.4 6.2 10.2 10.3 20.3 21.9 37.2 25.6 37.2.8 0 1.7-.8 2.1-1.8.3-.9 2.5-6.5 5-12.3 6-14.4 9.2-17.7 24.6-24.5l11.9-5.2-13.7-6.6c-16.5-7.9-26-14.1-34-22.1-11.2-11.2-15.1-19.9-10.7-23.7.9-.9 5-2.1 9-2.7 6.9-1.1 16.2-4.5 16.2-6 0-.4-2.6-1.8-5.7-3.1-8.2-3.4-14.3-7.1-16.5-10.1-1.9-2.5-1.9-2.6.2-9 2.9-8.5 2.5-20-1-27.4-2.6-5.4-2.7-9.7-.3-13.3 2.3-3.7 6.3-20.8 6.3-27.2 0-7.4-1.3-8.5-11.9-10-19.8-2.9-34.8 3.2-36.7 15l-.7 4h-6.1c-3.4 0-6.7.5-7.4 1.2-.6.6-1.4.9-1.8.6-.3-.4 2.1-3.9 5.4-8 18.3-22.6 32.3-50.5 41.6-82.9l4.4-15.2 5.1-3.9c2.8-2.1 5.1-4.2 5.1-4.6 0-.3-1.6-2.3-3.6-4.3l-3.6-3.7 1.5-11.4c.9-6.2 1.9-13.3 2.2-15.8 1.4-10.5 1.4-66.5 0-79.5-1.6-14.4-3.4-26.7-3.9-27.3-.7-.6-6.3 2.6-20.5 11.7-11.7 7.5-15.5 9.3-26.6 12.9-26.1 8.5-58.1 22.8-78.5 35.2-12.6 7.5-33.2 21.2-37.8 25l-3.4 2.8-5.7-3.3c-16.9-9.5-38.3-17.4-59.1-21.6-10.2-2.1-14.1-2.4-35-2.4-19.9.1-25.3.4-35 2.2-21.7 4.2-45 12.1-62.1 21.1l-8.7 4.5-11.1-9.6C206.3 95.8 164.5 70 134.4 59.1c-6.6-2.4-6.8-2.6-26.9-21.6-14.3-13.5-16.1-15-16.8-13.8z"/></svg>