<!DOCTYPE svg PUBLIC "-//W3C//DTD SVG 20010904//EN" "http://www.w3.org/TR/2001/REC-SVG-20010904/DTD/svg10.dtd">
<svg version="1.0" xmlns="http://www.w3.org/2000/svg" width="1200px" height="1200px" viewBox="0 0 12000 12000" preserveAspectRatio="xMidYMid meet">
<g id="layer102" fill="#272727" stroke="#272727" stroke-width="30">
 <path d="M5806 11059 c-295 -20 -698 -100 -771 -152 l-19 -15 -1 -143 0 -144 -8 -12 c-4 -7 -49 -35 -100 -64 -151 -85 -372 -224 -481 -301 l-101 -73 -46 -47 -47 -47 -5 5 -5 5 45 97 45 97 33 40 33 41 -31 14 -31 13 -30 -18 c-17 -10 -76 -43 -131 -73 -55 -30 -140 -82 -190 -116 l-90 -61 -91 -90 c-50 -49 -100 -103 -111 -119 l-20 -29 -7 154 c-3 85 -9 180 -13 212 l-6 59 -23 10 c-13 6 -26 9 -29 7 -2 -3 -9 -38 -16 -78 -6 -40 -19 -98 -29 -127 l-19 -54 -51 -74 -50 -73 -63 -61 c-83 -81 -112 -104 -197 -157 l-73 -45 -106 -44 -106 -45 -120 -35 -120 -36 -100 -49 -100 -49 -90 -65 -90 -64 -70 -69 c-39 -38 -99 -104 -133 -147 l-62 -79 -55 -93 c-176 -298 -260 -622 -278 -1073 l-4 -83 -9 -9 -10 -10 -74 -10 c-41 -5 -113 -11 -160 -12 l-85 -3 -52 8 -53 9 0 -11 0 -11 43 -1 42 0 -20 -9 -20 -9 45 5 c54 5 259 23 390 34 l95 8 13 -11 c20 -16 70 -112 211 -403 l131 -271 0 -25 0 -24 -49 -75 c-28 -42 -56 -81 -64 -88 l-15 -12 -11 31 -10 31 -53 72 c-28 40 -80 107 -115 150 -35 44 -63 83 -63 88 l0 9 -15 0 -15 0 0 -14 0 -13 71 -89 c100 -125 158 -207 170 -243 l11 -31 33 0 33 0 29 38 c16 20 44 61 61 90 l32 52 0 29 0 29 -160 328 c-88 181 -168 337 -178 347 l-16 19 -46 -3 c-25 -1 -55 -1 -66 0 l-21 1 4 98 c5 139 31 361 54 477 l20 100 39 118 c52 155 90 240 162 361 l60 101 56 70 c124 154 266 276 436 373 l87 50 102 32 c56 17 136 43 177 57 l75 25 130 63 130 64 60 45 c33 26 86 71 117 102 l57 56 46 69 c58 87 80 137 98 224 l14 70 6 -25 c3 -14 9 -105 13 -202 l7 -176 21 -6 c32 -9 33 -9 59 37 l26 43 95 91 95 91 98 65 c54 36 144 89 200 120 l101 54 11 -7 11 -6 -21 -20 -22 -19 -52 -110 -52 -109 5 -18 4 -17 20 -7 19 -6 62 64 62 64 100 71 c104 74 425 272 513 317 28 14 54 31 59 38 l8 13 0 142 1 143 14 14 15 14 85 27 c188 58 426 98 685 114 l150 9 155 -9 c256 -15 514 -56 744 -118 l108 -29 11 -11 10 -10 7 -161 8 -162 8 -8 c9 -8 619 -260 630 -260 3 0 29 -11 57 -25 l50 -26 28 6 27 6 -3 32 c-3 18 -8 48 -12 67 l-9 35 4 23 4 24 22 -30 c12 -17 44 -49 72 -71 l49 -41 75 -39 c41 -22 104 -49 139 -61 118 -39 378 -185 546 -305 l78 -56 26 6 27 6 28 60 27 59 59 64 59 63 41 18 42 19 8 -13 8 -14 -18 -31 -18 -31 -10 -50 c-6 -27 -14 -79 -17 -115 l-6 -65 10 -78 11 -78 30 -77 c17 -42 42 -94 55 -114 l25 -37 89 -60 c49 -33 135 -97 192 -142 l103 -82 107 -109 c168 -169 271 -303 383 -498 l66 -115 53 -130 53 -130 34 -3 35 -2 80 39 c44 22 83 37 86 35 l7 -4 -36 -73 c-21 -39 -55 -112 -77 -162 l-39 -90 -1 -60 c0 -33 6 -135 14 -226 l13 -166 -46 -107 c-25 -59 -46 -110 -46 -113 0 -2 7 -3 16 -1 l16 3 48 115 48 115 -8 65 c-5 36 -14 126 -20 201 l-12 137 7 23 c13 43 118 273 137 301 l18 26 -6 16 -6 16 -23 6 -23 6 -38 -26 c-22 -13 -62 -34 -91 -45 l-52 -20 -8 12 c-4 7 -27 59 -50 116 -113 275 -279 523 -500 747 l-98 99 -100 81 c-55 44 -142 109 -193 143 l-93 63 -29 40 -29 39 -29 72 -30 72 -12 84 -11 83 10 88 c11 90 25 142 46 173 l13 18 -5 20 -5 19 -37 0 -36 0 -40 -19 -40 -18 -52 -55 -51 -55 -32 -64 c-18 -35 -34 -66 -36 -68 -2 -2 -36 19 -76 46 -193 133 -442 271 -558 308 -30 10 -85 33 -121 52 l-67 34 -53 46 c-30 25 -67 63 -82 84 l-29 39 -23 0 -23 0 -5 -14 -6 -14 5 -49 c3 -26 9 -61 15 -77 l9 -30 -7 -7 -8 -8 -220 89 c-121 48 -283 115 -360 147 l-140 58 -6 30 c-4 17 -7 73 -8 126 0 53 -4 117 -7 142 l-6 45 -25 11 c-13 6 -86 27 -162 46 l-139 35 -149 24 c-166 27 -327 43 -513 50 l-125 4 -129 -9z"/>
 <path d="M5014 10423 l-1 -108 -12 -105 -13 -105 -11 -13 c-6 -8 -58 -46 -116 -85 -142 -97 -277 -203 -410 -321 l-110 -99 -93 -104 c-108 -121 -183 -223 -273 -373 -69 -114 -88 -155 -140 -293 l-33 -87 5 -20 5 -19 19 -6 20 -7 52 34 c66 43 146 78 272 118 l100 32 49 5 50 6 -23 8 -22 9 -111 -30 c-134 -37 -252 -83 -324 -126 l-53 -32 -4 12 -4 11 29 80 c43 119 78 191 159 322 209 342 469 597 951 929 l45 32 13 118 c7 66 13 164 14 219 l1 99 -15 3 -15 3 -1 -107z"/>
 <path d="M7044 10398 c4 -57 15 -150 25 -208 l18 -104 24 -19 c13 -10 101 -64 194 -119 94 -55 235 -144 314 -197 l145 -96 48 -45 48 -45 25 -98 24 -99 44 -106 43 -107 56 -100 c67 -118 146 -234 170 -249 l17 -10 7 7 7 6 -30 35 c-114 128 -275 464 -318 658 l-17 77 -41 38 c-57 52 -358 251 -547 361 l-155 90 -17 24 -17 23 -15 95 c-9 52 -19 139 -23 192 l-6 98 -15 0 -15 0 7 -102z"/>
 <path d="M7861 8856 l-12 -14 70 -70 69 -70 61 -81 c88 -118 167 -250 228 -379 l54 -113 49 -147 49 -147 25 -125 c32 -161 44 -260 52 -445 l6 -150 -11 -160 c-12 -165 -32 -319 -55 -415 l-12 -55 -96 -125 c-193 -253 -366 -539 -492 -816 -63 -138 -126 -300 -126 -322 0 -29 -20 -4 -85 110 -165 286 -457 700 -683 967 l-106 126 -151 150 -151 150 -104 82 c-58 44 -143 105 -189 133 l-84 52 -38 5 -38 6 -134 -66 -133 -66 -116 -75 c-65 -41 -163 -109 -220 -153 l-102 -78 -140 -135 -139 -135 -90 -110 -91 -110 -88 -135 -89 -135 -78 -155 c-66 -130 -122 -259 -155 -355 l-7 -20 -48 115 c-51 125 -179 383 -244 495 -59 102 -186 288 -260 380 l-65 80 -90 87 c-50 49 -96 98 -103 109 l-11 22 -11 179 -11 179 12 197 12 197 15 105 c60 400 199 781 392 1080 77 117 168 235 230 298 29 29 53 55 53 58 0 10 -23 2 -51 -18 l-31 -23 -73 -90 c-40 -49 -104 -138 -142 -196 l-70 -107 -60 -118 c-150 -294 -244 -612 -288 -964 l-15 -125 -6 -185 -6 -185 11 -149 11 -148 8 -15 c5 -8 60 -67 123 -131 l115 -117 72 -93 c39 -51 106 -148 149 -215 l77 -122 97 -190 96 -190 43 -112 44 -113 27 0 27 0 7 32 c13 56 92 243 154 365 79 153 171 300 279 443 l87 115 145 149 145 148 115 93 c186 150 388 277 578 363 l72 34 48 -28 c335 -195 702 -567 1086 -1101 139 -194 221 -320 333 -508 45 -77 86 -145 90 -152 l8 -12 25 -6 25 -6 34 98 c118 343 348 753 606 1083 l82 105 11 35 c13 43 37 190 54 325 l12 100 -1 245 0 245 -16 110 c-8 61 -27 165 -42 230 l-27 120 -40 120 -39 120 -68 140 c-109 226 -224 398 -353 528 l-67 67 33 0 33 0 79 -20 c43 -11 97 -30 121 -41 l43 -21 12 5 13 4 -43 22 -42 21 -105 25 c-58 14 -116 25 -129 25 l-24 0 -11 -14z"/>
 <path d="M9369 8623 l-17 -4 -6 -77 c-4 -42 -11 -135 -16 -207 l-9 -130 -1 -205 0 -205 10 -140 c24 -324 65 -606 126 -860 19 -82 38 -166 41 -186 l5 -36 -61 -5 -61 -4 -28 -21 -27 -20 -22 -39 -21 -39 -16 -77 -16 -77 0 -193 0 -194 -89 -140 c-108 -169 -185 -309 -236 -429 l-38 -89 -5 -66 -4 -66 32 -28 c42 -35 130 -79 199 -100 l55 -16 105 0 106 0 69 25 69 24 70 48 c38 26 79 54 92 62 l22 14 32 -24 33 -24 89 -3 88 -4 7 -36 c3 -21 10 -52 16 -70 l10 -32 50 -55 50 -55 61 -30 62 -30 75 -16 75 -16 125 5 125 5 75 17 75 16 23 15 24 16 15 36 16 37 -6 105 -6 105 -31 120 -30 120 -41 83 -41 83 6 31 c3 17 20 59 37 94 l31 63 16 97 16 97 -11 96 -11 96 -25 72 -25 72 18 29 18 29 48 35 c62 45 148 88 246 123 l76 27 5 18 5 19 -17 14 c-23 21 -87 51 -148 71 l-52 17 -94 14 -94 13 -27 17 -26 17 -6 25 -6 24 4 51 5 51 16 12 c9 6 37 40 63 76 91 123 252 264 412 362 162 98 380 201 522 247 l55 18 -28 1 -28 1 -97 -36 c-272 -102 -579 -286 -745 -447 l-64 -62 -58 -79 -58 -79 -7 19 c-4 10 -11 43 -15 72 l-7 53 58 87 c114 173 266 362 466 581 79 87 88 101 65 101 l-13 0 -106 -117 c-185 -206 -331 -389 -444 -559 l-54 -81 0 -25 c0 -14 5 -50 11 -81 l12 -57 7 0 8 0 -5 -59 -6 -59 7 -26 6 -26 38 -19 37 -19 75 -7 75 -7 75 -25 75 -24 38 -25 37 -24 0 -14 0 -13 -62 -23 c-83 -30 -212 -95 -266 -133 l-43 -31 -20 -32 -19 -32 29 -89 30 -89 6 -94 7 -95 -16 -85 -15 -84 -32 -61 -32 -60 -1 -51 0 -52 25 -38 26 -39 27 -81 c14 -44 35 -126 46 -182 l20 -103 0 -72 0 -72 -20 -32 -19 -32 -23 -12 c-13 -7 -50 -18 -83 -26 l-60 -13 -100 -6 -100 -7 -72 12 -71 12 -61 29 -61 29 -51 48 -51 48 -18 35 -17 35 -7 47 -7 46 -94 4 -94 3 -28 28 -29 27 -26 0 -25 0 -34 -24 c-19 -14 -60 -43 -92 -65 l-57 -40 -58 -22 -57 -22 -87 -5 -87 -4 -73 22 -73 22 -50 30 c-27 17 -60 39 -72 51 l-23 20 0 43 0 43 26 73 c46 127 114 254 261 484 l83 131 0 199 0 199 15 68 14 68 23 42 23 41 35 24 34 23 40 -3 39 -3 35 -62 34 -63 30 0 30 0 -5 43 c-5 48 -74 723 -82 807 l-5 55 21 -25 c12 -14 41 -47 66 -73 l45 -48 26 3 27 3 7 120 c23 385 42 557 77 695 l16 65 128 5 127 5 -6 -15 c-67 -166 -130 -391 -185 -664 l-40 -198 -6 -69 -6 -69 13 -15 12 -15 41 -11 41 -11 43 7 43 6 32 33 c18 18 47 51 65 73 l32 41 48 4 48 4 21 -16 22 -16 -13 -25 c-7 -13 -43 -106 -79 -206 l-66 -182 0 -31 0 -30 29 0 28 0 42 103 43 102 59 100 c77 129 207 311 359 502 l121 151 107 104 c59 57 121 113 139 126 l31 22 44 -57 43 -57 80 -42 c174 -93 379 -175 435 -173 l25 0 -85 28 c-87 29 -239 95 -345 151 -71 37 -105 68 -146 132 l-31 48 -10 0 c-19 0 -95 -59 -187 -146 l-95 -89 -99 -119 c-124 -150 -242 -308 -341 -456 l-77 -115 -58 -120 c-32 -66 -63 -131 -69 -145 l-11 -25 0 17 c-1 18 105 314 139 391 l19 41 -34 33 -34 33 -16 0 -16 0 5 -9 6 -9 -16 -6 c-9 -3 -26 -6 -39 -6 l-23 0 -5 14 -6 14 19 89 c20 96 50 199 105 367 19 59 35 115 35 122 l0 14 -12 0 -13 0 -53 -168 c-60 -191 -100 -346 -105 -412 l-4 -46 -48 -63 -48 -63 -33 -14 -33 -14 -30 6 -30 6 -17 19 -17 19 7 67 c8 86 67 383 107 533 40 153 104 347 128 387 l20 31 55 16 56 17 0 9 c0 14 -13 12 -46 -5 -16 -8 -36 -15 -44 -15 -8 0 -27 -6 -42 -14 l-26 -14 -134 2 -133 1 -46 32 -46 32 -48 53 -48 53 -86 130 c-47 72 -97 154 -110 183 l-24 52 -11 -1 c-6 -1 -18 -3 -27 -6z m176 -288 c35 -49 81 -111 104 -137 l41 -46 45 -29 c25 -15 47 -33 49 -40 l5 -12 -19 -98 c-10 -54 -26 -152 -34 -218 l-16 -120 -10 -190 c-5 -104 -10 -201 -10 -215 l-1 -25 -68 73 -68 72 -28 0 -28 0 6 -62 c38 -386 79 -778 83 -800 l6 -28 -5 0 c-3 0 -18 21 -33 48 l-28 47 -7 45 c-4 25 -23 113 -43 195 -60 254 -102 539 -126 860 l-10 140 0 200 0 200 10 140 c5 77 13 168 16 203 l6 62 50 -87 c28 -49 79 -128 113 -178z"/>
 <path d="M10827 8258 l-68 -73 -65 -98 c-106 -160 -283 -497 -300 -569 l-6 -28 16 0 15 0 11 43 12 42 83 161 c129 250 224 396 335 517 l53 58 9 -9 c5 -5 24 -49 42 -98 18 -49 50 -131 72 -181 l39 -93 13 0 c17 0 16 6 -24 100 -20 47 -51 128 -70 180 l-34 95 -17 13 c-9 6 -24 12 -32 12 l-16 0 -68 -72z"/>
 <path d="M2237 8216 c-4 -9 -63 -104 -132 -212 -69 -108 -125 -201 -125 -205 l0 -9 -20 0 -20 0 0 -10 0 -10 15 0 15 0 30 -59 c53 -106 121 -263 176 -406 l53 -140 31 0 31 0 14 -50 c37 -129 78 -392 90 -570 3 -49 8 -105 11 -122 l5 -33 25 -6 24 -6 15 12 14 12 55 -32 55 -31 46 -57 45 -57 50 -100 50 -100 34 -106 34 -107 57 -97 c32 -53 83 -152 115 -218 l58 -122 32 -95 32 -95 5 -71 6 -71 -13 -38 -13 -38 -39 -43 -40 -43 -56 -22 -57 -22 -100 0 -100 0 -95 32 -95 32 -51 30 -51 29 -22 0 -21 0 0 14 0 14 -44 36 -44 36 -29 0 -29 0 -35 -36 c-18 -20 -43 -41 -54 -47 l-20 -11 -44 -1 -44 -2 -10 -19 c-6 -10 -31 -41 -56 -68 l-46 -49 -59 -39 -59 -38 -81 -27 -81 -28 -220 0 -220 0 -22 13 -23 13 0 53 0 53 25 132 c14 73 34 196 45 273 l21 141 24 29 25 30 0 70 0 70 -15 58 c-8 32 -29 89 -46 127 l-31 68 6 77 6 76 -117 102 c-65 56 -166 139 -225 183 -60 44 -108 84 -108 88 l0 6 88 21 c48 11 113 30 145 42 l58 22 13 21 14 22 27 133 26 132 -5 18 -6 17 -146 80 c-81 44 -182 98 -225 121 l-78 41 35 34 35 34 26 48 27 48 15 -6 c35 -14 235 -134 384 -231 l158 -104 49 -46 49 -46 11 4 11 3 -21 28 -21 27 23 0 c38 -1 289 -30 343 -40 28 -5 68 -9 90 -8 l40 0 -95 17 -95 16 2 13 3 12 -13 0 -13 0 -17 48 -17 47 0 31 c0 46 -27 215 -39 248 l-11 28 -183 185 -182 185 -38 25 -38 24 -17 -3 -17 -4 40 -26 40 -26 187 -189 186 -189 11 -40 c5 -21 15 -86 21 -144 l12 -105 19 -55 c10 -30 17 -55 15 -57 -1 -2 -65 3 -142 10 l-139 13 -56 41 c-86 63 -251 168 -393 250 l-128 74 -28 5 -27 6 -30 -54 -30 -53 -49 -46 c-60 -55 -206 -155 -293 -198 l-63 -32 -72 -19 -71 -18 30 -1 c17 0 53 5 80 13 l50 13 80 41 c44 22 118 67 164 99 l85 59 202 -111 c110 -60 211 -117 224 -125 l23 -16 -27 -132 c-14 -73 -31 -142 -37 -153 l-11 -21 -49 -23 -50 -23 -99 -23 -99 -23 -4 -18 -5 -18 31 -17 c46 -23 132 -91 289 -225 l136 -118 -5 -73 -5 -72 26 -59 c14 -32 35 -87 46 -123 l20 -65 0 -66 0 -66 -24 -35 -25 -36 -21 -145 c-12 -80 -32 -201 -45 -270 l-25 -125 0 -63 0 -62 28 -12 27 -12 202 -4 202 -4 83 17 83 16 91 44 91 44 61 66 c34 36 62 70 62 75 l0 10 41 0 40 0 22 11 c12 6 40 29 62 50 l40 38 44 -38 45 -38 -51 -59 c-176 -206 -364 -557 -511 -959 -37 -101 -121 -377 -136 -451 l-7 -32 -17 -15 -17 -15 -150 -60 c-82 -33 -186 -77 -230 -98 l-80 -37 15 -4 16 -4 94 44 c52 25 156 68 230 98 74 29 143 59 152 67 l17 14 10 50 c32 145 141 472 229 683 112 268 289 569 427 726 l32 36 97 -47 97 -48 62 -15 c34 -9 94 -19 132 -22 l71 -7 73 11 72 11 48 25 48 24 30 35 31 34 12 38 13 37 -6 76 -5 76 -31 95 -31 95 -65 133 c-36 74 -89 177 -119 230 l-54 97 -36 107 -35 106 -42 84 c-23 45 -61 110 -84 144 l-43 60 -40 27 c-22 14 -56 33 -77 41 l-37 16 6 47 c3 27 8 134 12 238 l6 190 -11 195 c-25 423 -78 749 -174 1060 l-23 75 -31 3 -30 3 -6 -15z m108 -241 l35 -130 24 -145 c36 -205 54 -377 67 -633 l12 -222 -11 -213 -10 -214 -10 -10 -11 -11 -5 24 c-2 13 -9 89 -16 169 l-11 145 -24 142 c-13 78 -33 175 -43 217 l-20 75 -17 17 -17 18 -18 -12 -19 -11 -17 52 c-26 81 -95 248 -168 406 l-67 143 137 216 138 215 18 -54 c11 -30 34 -112 53 -184z"/>
 <path d="M2042 7788 c90 -142 162 -290 207 -424 l31 -92 0 -26 0 -26 15 0 15 0 0 26 0 26 -31 92 c-35 106 -108 262 -167 359 -23 37 -42 72 -42 77 l0 10 -21 0 -21 0 14 -22z"/>
 <path d="M1850 7739 l-45 -21 13 -5 14 -5 21 11 c12 6 40 17 62 25 l40 15 -30 0 -30 1 -45 -21z"/>
 <path d="M834 7652 l-10 -7 -11 -95 c-6 -52 -9 -115 -8 -140 1 -25 2 -71 3 -102 l2 -58 16 0 16 0 -5 118 -5 117 12 78 11 78 150 -99 c232 -152 409 -300 538 -447 l69 -80 21 -42 21 -43 13 0 13 0 0 10 c0 23 -35 78 -97 152 l-64 77 -87 78 c-130 117 -248 206 -416 315 -152 99 -162 104 -182 90z"/>
 <path d="M280 6741 c41 -16 214 -88 385 -160 l310 -132 18 3 18 3 -375 158 -374 157 -28 0 -29 -1 75 -28z"/>
 <path d="M9680 5102 c0 -4 20 -25 45 -45 l45 -38 74 -98 c191 -251 343 -518 471 -825 l63 -153 56 -171 c30 -94 67 -218 81 -274 14 -57 30 -120 36 -140 l10 -37 46 -33 c26 -17 64 -47 85 -66 l38 -34 0 -16 0 -16 -57 -58 -56 -57 26 -188 c15 -103 32 -254 39 -335 l12 -148 13 0 13 0 0 43 c0 63 -26 302 -50 471 l-22 148 56 57 56 57 0 26 0 26 -38 34 c-21 19 -59 48 -84 66 l-46 32 -11 32 c-5 18 -24 87 -40 153 -17 66 -51 185 -76 264 l-46 143 -65 156 c-142 341 -322 653 -520 903 l-53 66 -39 32 c-39 30 -62 39 -62 23z"/>
 <path d="M2617 4653 l-17 -5 -16 -30 c-70 -134 -202 -644 -207 -796 l-2 -46 18 -4 18 -4 -6 24 -6 23 26 135 c54 277 126 534 183 645 l25 50 39 -45 c56 -63 166 -211 238 -321 l62 -94 79 -160 80 -159 26 -86 c14 -47 30 -91 36 -97 l9 -13 99 -30 99 -31 0 -14 0 -15 -98 -118 c-534 -639 -1067 -1405 -1336 -1922 l-81 -155 -6 65 c-4 36 -7 160 -8 275 l-1 210 15 100 c8 55 26 141 40 191 14 51 25 102 25 115 l0 24 -158 200 -157 200 -25 3 -24 4 34 -39 c48 -53 272 -338 290 -368 l14 -24 -18 -68 c-11 -38 -28 -108 -38 -158 l-19 -90 -6 -197 -6 -196 8 -126 7 -126 13 0 13 0 -5 -20 -5 -20 16 0 16 0 49 103 c218 463 868 1405 1403 2035 l79 93 -3 22 -3 22 -104 35 -104 35 -32 100 -33 100 -78 160 -79 160 -77 115 c-42 63 -116 164 -165 225 l-88 110 -15 1 c-8 1 -23 0 -33 -3z"/>
 <path d="M9440 4565 c-76 -136 -308 -447 -441 -589 l-71 -76 -76 -61 c-42 -34 -97 -73 -124 -88 l-48 -26 0 -18 0 -19 84 -91 c125 -136 201 -230 369 -452 l150 -200 182 -275 c269 -405 625 -995 753 -1248 l47 -93 25 6 c14 4 27 9 30 12 3 2 4 111 3 241 l-1 237 -16 125 c-20 157 -50 304 -87 437 -16 57 -29 113 -29 126 l0 22 27 40 c38 57 120 151 262 297 l123 128 -20 0 -20 0 -147 -153 -146 -154 -55 -72 -54 -72 0 -35 0 -35 29 -97 c36 -120 66 -270 86 -427 l16 -120 4 -232 5 -232 -8 -5 -9 -5 -17 37 c-29 61 -260 462 -389 677 -401 667 -764 1180 -1049 1486 l-118 127 0 13 0 14 63 37 62 36 81 70 c87 76 182 180 285 312 72 93 258 360 281 405 l15 28 25 -54 26 -54 25 -110 c41 -174 65 -333 87 -584 l11 -115 11 -13 10 -13 23 0 23 0 198 -65 c110 -36 217 -74 239 -84 22 -10 69 -31 105 -46 36 -15 95 -43 132 -61 l68 -34 17 0 18 1 -78 40 c-43 22 -129 62 -190 88 l-112 48 -195 63 c-107 34 -205 66 -217 70 l-21 9 -6 53 c-30 292 -39 368 -56 468 -11 63 -31 159 -45 213 l-26 98 -21 44 -22 45 -30 0 -31 0 -25 -45z"/>
 <path d="M1190 3223 c0 -3 46 -54 103 -112 106 -109 257 -285 257 -300 0 -5 -4 -32 -10 -60 -10 -55 -41 -345 -62 -591 l-12 -145 0 -450 0 -450 12 -165 c20 -265 42 -513 48 -543 l6 -27 23 -6 24 -6 303 289 304 288 160 64 159 63 215 108 c531 265 1016 596 1457 995 l61 55 144 -74 c447 -233 904 -363 1427 -407 l144 -12 186 6 186 6 125 16 c69 9 190 29 270 46 l145 29 135 41 134 40 136 55 135 55 180 93 180 92 90 -68 c261 -198 629 -423 985 -602 345 -174 611 -285 945 -393 242 -78 251 -82 345 -143 41 -26 162 -103 269 -170 l193 -123 26 9 26 9 8 45 c18 100 49 355 63 520 l16 175 6 265 6 265 -8 178 -7 177 -12 0 -11 0 0 -427 0 -428 -18 -195 c-10 -107 -29 -276 -43 -375 l-25 -180 -9 -8 -8 -9 -193 122 c-107 67 -228 144 -269 170 l-75 49 -255 84 -255 85 -160 65 c-538 219 -1071 515 -1495 831 l-115 86 -24 0 -24 0 -76 -44 c-369 -212 -786 -351 -1231 -411 l-115 -15 -185 -6 -185 -6 -165 16 c-201 19 -359 45 -548 91 l-143 35 -152 51 c-232 77 -437 166 -599 260 l-66 39 -34 0 -33 -1 -65 -60 c-506 -470 -1222 -925 -1837 -1169 l-132 -52 -35 -27 c-19 -14 -156 -142 -305 -284 l-270 -258 -6 23 c-5 25 -26 267 -47 538 l-12 165 0 450 0 450 12 145 c21 246 52 537 62 591 l10 53 -6 20 -7 21 -71 85 c-39 47 -118 133 -175 193 l-104 107 -14 0 c-7 0 -13 -3 -13 -7z"/>
 </g>

</svg>